<?xml version="1.0" encoding="UTF-8" standalone="no"?><!DOCTYPE svg PUBLIC "-//W3C//DTD SVG 1.1//EN" "http://www.w3.org/Graphics/SVG/1.1/DTD/svg11.dtd"><svg width="100%" height="100%" viewBox="0 0 4043 864" version="1.1" xmlns="http://www.w3.org/2000/svg" xmlns:xlink="http://www.w3.org/1999/xlink" xml:space="preserve" xmlns:serif="http://www.serif.com/" style="fill-rule:evenodd;clip-rule:evenodd;stroke-linejoin:round;stroke-miterlimit:2;"><rect id="Artboard1" x="0" y="0" width="4042.083" height="863.333" style="fill:none;"/><clipPath id="_clip1"><rect x="0" y="0" width="4042.083" height="863.333"/></clipPath><g clip-path="url(#_clip1)"><g><path d="M794.958,363.268l-363.292,363.268l-294.875,-294.848l294.875,-294.889l113.292,113.255l-113.292,113.297l-100.417,-100.422l-68.417,68.378l168.833,168.841l250.083,-250.095l-250.083,-250.054l-181.667,181.675l-67.458,-67.462l-68.417,68.378l67.5,67.462l-181.625,181.634l431.667,431.646l181.625,-181.634l67.708,67.712l68.417,-68.378l-67.708,-67.712l181.625,-181.634l-68.375,-68.42Z" style="fill:#f15a28;fill-rule:nonzero;stroke:#f15a28;stroke-width:4.17px;"/><path d="M1572.75,255.304c-12.083,0 -21.875,9.792 -21.875,21.876l0,335.058l43.75,0l0,-335.058c0,-12.084 -9.792,-21.876 -21.875,-21.876Z" style="fill-rule:nonzero;"/><path d="M2184.333,426.479c-12.333,-8.667 -29.167,-13.084 -50.083,-13.084l-66.542,0c-10.708,0 -18.708,-2.708 -23.75,-8c-5.167,-5.459 -7.667,-12.584 -7.667,-21.876l0,-8c0,-9.75 2.292,-16.917 6.792,-21.251c4.542,-4.417 11.292,-6.625 20.083,-6.625l105.542,0c12.5,0 22.625,-10.125 22.625,-22.626c0,-12.501 -10.125,-22.626 -22.625,-22.626l-95.542,0c-13.167,0 -24.75,1.125 -34.458,3.333c-10,2.292 -18.375,6.417 -24.875,12.209c-6.542,5.834 -11.5,13.626 -14.625,23.126c-3.083,9.292 -4.667,21.084 -4.667,35.002l0,11.501c0,23.668 6.583,40.335 19.583,49.586c12.625,9 30.667,13.584 53.583,13.584l65.042,0c8.875,0 15.917,2.208 21,6.5c5,4.25 7.417,10.459 7.417,18.876l0,18.001c0,18.001 -9.042,26.376 -28.417,26.376l-132.167,0l0,44.752l133.208,0c24.875,0 42.917,-6.417 53.667,-19.126c10.625,-12.542 16,-31.543 16,-56.544l0,-16.501c-0.042,-22.001 -6.458,-37.668 -19.125,-46.586Z" style="fill-rule:nonzero;"/><path d="M3005.208,302.348l-88.042,0c-12.5,0 -22.625,10.125 -22.625,22.626c0,12.501 10.125,22.626 22.625,22.626l88.042,0c23.833,0 35.375,13.042 35.375,39.877l0,16.376l-96.417,0c-42.583,0 -64.167,20.251 -64.167,60.17l0,37.543c0,20.751 5.25,36.71 15.625,47.461c10.375,10.751 26.708,16.209 48.5,16.209l139.208,0l0,-179.217c0.042,-55.544 -26.25,-83.671 -78.125,-83.671Zm35.375,220.594l-93.417,0c-17.667,0 -25.875,-8.375 -25.875,-26.376l0,-26.001c0,-18.709 8.208,-27.376 25.875,-27.376l93.417,0l0,79.754Z" style="fill-rule:nonzero;"/><path d="M3303.458,280.68c0,-12.209 -9.917,-22.126 -22.125,-22.126c-12.208,0 -22.125,9.917 -22.125,22.126l0,243.137c0,56.503 25.125,85.171 74.667,85.171l33.125,0l0,-41.752l-29.625,0c-22.792,0 -33.875,-13.709 -33.875,-41.919l0,-139.965l64.542,0l0,-39.252l-64.542,0l0,-65.42l-0.042,0Z" style="fill-rule:nonzero;"/><path d="M1776.5,282.597c0,12.251 9.917,22.126 22.125,22.126c12.25,0 22.125,-9.917 22.125,-22.126l0,-31.543l-44.292,0l0,31.543l0.042,0Z" style="fill-rule:nonzero;"/><path d="M3543.833,282.597c0,12.251 9.917,22.126 22.125,22.126c12.25,0 22.125,-9.917 22.125,-22.126l0,-31.543l-44.292,0l0,31.543l0.042,0Z" style="fill-rule:nonzero;"/><rect x="1776.5" y="333.683" width="44.292" height="242.387"/><rect x="3543.833" y="333.683" width="44.292" height="242.387"/><path d="M3993.292,567.486l0,-233.011c0,-23.334 -6.125,-42.502 -18.25,-57.044c-12.25,-14.667 -31.417,-22.126 -56.917,-22.126l-73.042,0c-25.542,0 -44.75,7.459 -57.167,22.126c-12.292,14.542 -18.5,33.71 -18.5,57.044l0,199.093c0,23.334 6.208,42.46 18.5,56.836c12.417,14.501 32.125,21.834 58.667,21.834l195.542,0l0,-44.752l-48.833,0Zm-44.792,0l-103.417,0c-10.458,0 -17.958,-2.833 -22.875,-8.667c-5,-5.917 -7.5,-14.042 -7.5,-24.251l0,-200.093c0,-10.209 2.542,-18.334 7.5,-24.251c4.917,-5.834 12.417,-8.667 22.875,-8.667l73.042,0c10.625,0 18.417,2.917 23.083,8.625c4.833,5.917 7.292,14.084 7.292,24.293l0,233.011Z" style="fill-rule:nonzero;"/><path d="M2707.833,324.224c-6.125,-7.334 -13.958,-12.876 -23.5,-16.584c-9.5,-3.709 -20.667,-5.542 -33.458,-5.542l-62.167,0c-11.5,0 -21.667,1.542 -30.542,4.542c-8.875,3 -16.417,7.5 -22.625,13.459c-6.125,-5.959 -13.625,-10.417 -22.458,-13.459c-8.833,-3 -19,-4.542 -30.5,-4.542l-62.167,0c-12.75,0 -23.958,1.875 -33.5,5.542c-9.542,3.709 -17.458,9.209 -23.667,16.584c-6.125,7.25 -10.75,15.709 -13.875,25.21c-3.083,9.542 -4.625,20.168 -4.625,31.835l0,184.176l45.25,0l0,-184.176c0,-5.084 0.625,-9.667 1.875,-13.751c1.25,-4.042 3.125,-7.584 5.625,-10.542c2.458,-2.917 5.583,-5.084 9.375,-6.5c3.792,-1.417 8.292,-2.125 13.5,-2.125l62.167,0c5.333,0 9.917,0.708 13.792,2.167c3.875,1.458 6.958,3.584 9.333,6.459c2.417,2.958 4.25,6.459 5.458,10.542c1.208,4.042 1.833,8.667 1.833,13.751l0,184.176l45.333,0l0,-184.176c0,-5.084 0.625,-9.667 1.875,-13.751c1.25,-4.042 3.125,-7.584 5.625,-10.542c2.458,-2.917 5.542,-5.084 9.375,-6.5c3.792,-1.417 8.292,-2.125 13.5,-2.125l62.167,0c5.333,0 9.917,0.708 13.792,2.167c3.875,1.458 6.958,3.584 9.333,6.459c2.417,2.958 4.25,6.459 5.458,10.542c1.208,4.042 1.833,8.667 1.833,13.751l0,161.799c0,12.376 10.042,22.376 22.375,22.376c12.375,0 22.375,-10.042 22.375,-22.376l0,-161.799c0,-11.667 -1.542,-22.293 -4.583,-31.835c-3,-9.5 -7.542,-17.959 -13.583,-25.21Z" style="fill-rule:nonzero;"/><path d="M1338.125,452.647c21.542,0 39,-17.459 39,-39.002l0,-158.383l-45.083,0l0,0.042l-115.75,0c-22.375,0 -40.542,18.126 -40.542,40.544l0,316.432l177.208,0c12.083,0 22.875,-8.834 24.042,-20.876c1.333,-13.792 -9.5,-25.418 -23.042,-25.418l-132.958,0l0,-113.339l117.125,0Zm-117.083,-151.049l111,0l0,107.839l-111,0l0,-107.839Z" style="fill-rule:nonzero;"/></g></g></svg>