<?xml version="1.0" encoding="UTF-8" standalone="no"?><!DOCTYPE svg PUBLIC "-//W3C//DTD SVG 1.1//EN" "http://www.w3.org/Graphics/SVG/1.1/DTD/svg11.dtd"><svg width="100%" height="100%" viewBox="0 0 560 567" version="1.1" xmlns="http://www.w3.org/2000/svg" xmlns:xlink="http://www.w3.org/1999/xlink" xml:space="preserve" xmlns:serif="http://www.serif.com/" style="fill-rule:evenodd;clip-rule:evenodd;stroke-linejoin:round;stroke-miterlimit:2;"><rect id="Page-2" serif:id="Page 2" x="0" y="0" width="559.029" height="566.667" style="fill:none;"/><g id="Page-21" serif:id="Page 2"><g id="Layer-1" serif:id="Layer 1"><path d="M546.672,554.863l-69.388,-111.238c35.863,-43.463 57.404,-99.179 57.404,-159.929c0,-138.871 -112.579,-251.45 -251.45,-251.45c-138.875,-0 -251.45,112.579 -251.45,251.45c0,138.871 112.575,251.45 251.45,251.45c45.404,-0 87.959,-12.096 124.721,-33.15l138.713,52.866Z" style="fill:#f15928;fill-rule:nonzero;"/></g><g><path d="M239.504,203.572l21.679,63.648c1.627,4.776 4.325,9.115 7.886,12.684c3.561,3.568 7.891,6.272 12.657,7.902l63.514,21.725l-63.514,21.726c-4.766,1.63 -9.096,4.334 -12.657,7.902c-3.561,3.569 -6.259,7.908 -7.886,12.684l-21.679,63.648l-21.68,-63.648c-1.627,-4.776 -4.324,-9.115 -7.886,-12.684c-3.561,-3.568 -7.891,-6.272 -12.657,-7.902l-63.514,-21.726l63.514,-21.725c4.766,-1.63 9.096,-4.334 12.657,-7.902c3.562,-3.569 6.259,-7.908 7.886,-12.684l21.68,-63.648Z" style="fill:#fff;"/><path d="M377.247,123.133l13.829,40.599c1.037,3.046 2.758,5.814 5.03,8.09c2.271,2.277 5.033,4.001 8.073,5.041l40.514,13.858l-40.514,13.858c-3.04,1.04 -5.802,2.764 -8.073,5.04c-2.272,2.277 -3.993,5.044 -5.03,8.091l-13.829,40.599l-13.829,-40.599c-1.038,-3.047 -2.758,-5.814 -5.03,-8.091c-2.271,-2.276 -5.033,-4 -8.073,-5.04l-40.514,-13.858l40.514,-13.858c3.04,-1.04 5.802,-2.764 8.073,-5.041c2.272,-2.276 3.992,-5.044 5.03,-8.09l13.829,-40.599Z" style="fill:#fff;"/><path d="M340.487,367.989l9.82,28.829c0.737,2.163 1.958,4.128 3.571,5.745c1.613,1.616 3.574,2.84 5.733,3.579l28.768,9.84l-28.768,9.84c-2.159,0.739 -4.12,1.963 -5.733,3.58c-1.613,1.616 -2.834,3.581 -3.571,5.745l-9.82,28.828l-9.82,-28.828c-0.736,-2.164 -1.958,-4.129 -3.571,-5.745c-1.613,-1.617 -3.574,-2.841 -5.733,-3.58l-28.768,-9.84l28.768,-9.84c2.159,-0.739 4.12,-1.963 5.733,-3.579c1.613,-1.617 2.835,-3.582 3.571,-5.745l9.82,-28.829Z" style="fill:#fff;"/></g></g></svg>