<?xml version="1.0" standalone="no"?>
<!DOCTYPE svg PUBLIC "-//W3C//DTD SVG 20010904//EN"
 "http://www.w3.org/TR/2001/REC-SVG-20010904/DTD/svg10.dtd">
<svg version="1.0" xmlns="http://www.w3.org/2000/svg"
 width="567.000000pt" height="567.000000pt" viewBox="0 0 567.000000 567.000000"
 preserveAspectRatio="xMidYMid meet">
<metadata>
Created by potrace 1.14, written by Peter Selinger 2001-2017
</metadata>
<g transform="translate(0.000000,567.000000) scale(0.100000,-0.100000)"
fill="#000000" stroke="none">
<path d="M2657 5339 c-790 -65 -1497 -496 -1931 -1179 -117 -184 -243 -480
-301 -710 -86 -339 -98 -736 -34 -1080 61 -327 192 -647 374 -920 111 -166
173 -242 308 -379 379 -386 855 -631 1397 -721 162 -27 444 -37 616 -21 326
30 684 136 951 282 l72 39 686 -261 c377 -144 688 -260 690 -258 2 2 -149 249
-336 548 -186 299 -339 547 -339 552 0 5 33 53 74 108 411 552 576 1266 451
1946 -209 1129 -1142 1967 -2288 2055 -148 11 -246 11 -390 -1z m1223 -1129
c98 -287 83 -272 372 -370 158 -54 213 -77 202 -83 -9 -5 -102 -38 -207 -73
-105 -35 -208 -75 -229 -89 -49 -33 -72 -79 -148 -308 -34 -104 -66 -185 -70
-180 -4 4 -38 97 -75 207 -38 109 -78 212 -89 229 -34 51 -74 71 -283 142
-109 38 -202 71 -206 75 -5 4 76 36 180 70 217 72 277 101 309 150 13 19 53
123 89 230 78 234 75 224 79 219 2 -2 36 -101 76 -219z m-1340 -910 c114 -339
126 -368 179 -423 49 -52 83 -68 315 -148 412 -142 438 -152 423 -160 -8 -5
-151 -55 -319 -112 -167 -57 -319 -112 -338 -122 -49 -24 -108 -82 -132 -130
-12 -22 -70 -184 -130 -360 -60 -175 -110 -321 -112 -322 -2 -2 -52 140 -111
314 -120 354 -131 381 -184 436 -50 54 -83 68 -361 163 -326 112 -392 136
-387 140 2 3 145 53 318 113 173 59 332 117 354 129 50 25 107 84 133 137 11
22 65 175 121 340 56 165 104 306 107 314 3 8 8 11 13 5 4 -5 54 -146 111
-314z m936 -1432 c47 -144 70 -198 96 -225 12 -13 82 -43 174 -75 85 -29 154
-55 154 -58 0 -3 -66 -27 -147 -55 -80 -27 -157 -59 -171 -69 -29 -23 -56 -82
-106 -233 -21 -62 -39 -113 -41 -113 -2 0 -16 37 -31 83 -55 167 -85 236 -114
260 -15 13 -93 46 -174 73 -80 27 -146 51 -146 54 0 3 66 27 148 55 192 65
193 66 262 263 29 83 54 152 56 152 1 0 19 -51 40 -112z"/>
</g>
</svg>
